<svg width="68" height="57" viewBox="0 0 68 57" fill="none" xmlns="http://www.w3.org/2000/svg">
<path d="M15.0128 42V17.052H31.7168V21.768H20.6288V26.988H30.4928V31.704H20.6288V42H15.0128ZM46.7794 42.504C42.7234 42.504 39.6274 41.376 37.4914 39.12C35.3794 36.864 34.3234 33.66 34.3234 29.508C34.3234 27.444 34.6474 25.608 35.2954 24C35.9434 22.368 36.8314 21 37.9594 19.896C39.0874 18.768 40.4314 17.916 41.9914 17.34C43.5514 16.764 45.2434 16.476 47.0674 16.476C48.1234 16.476 49.0834 16.56 49.9474 16.728C50.8114 16.872 51.5674 17.052 52.2154 17.268C52.8634 17.46 53.4034 17.664 53.8354 17.88C54.2674 18.096 54.5794 18.264 54.7714 18.384L53.1514 22.92C52.3834 22.512 51.4834 22.164 50.4514 21.876C49.4434 21.588 48.2914 21.444 46.9954 21.444C46.1314 21.444 45.2794 21.588 44.4394 21.876C43.6234 22.164 42.8914 22.632 42.2434 23.28C41.6194 23.904 41.1154 24.72 40.7314 25.728C40.3474 26.736 40.1554 27.96 40.1554 29.4C40.1554 30.552 40.2754 31.632 40.5154 32.64C40.7794 33.624 41.1874 34.476 41.7394 35.196C42.3154 35.916 43.0594 36.492 43.9714 36.924C44.8834 37.332 45.9874 37.536 47.2834 37.536C48.0994 37.536 48.8314 37.488 49.4794 37.392C50.1274 37.296 50.7034 37.188 51.2074 37.068C51.7114 36.924 52.1554 36.768 52.5394 36.6C52.9234 36.432 53.2714 36.276 53.5834 36.132L55.1314 40.632C54.3394 41.112 53.2234 41.544 51.7834 41.928C50.3434 42.312 48.6754 42.504 46.7794 42.504Z" fill="#F4D35E"/>
<path d="M3 2H65V-2H3V2ZM66 3V54H70V3H66ZM65 55H3V59H65V55ZM2 54V3H-2V54H2ZM3 55C2.44772 55 2 54.5523 2 54H-2C-2 56.7614 0.238574 59 3 59V55ZM66 54C66 54.5523 65.5523 55 65 55V59C67.7614 59 70 56.7614 70 54H66ZM65 2C65.5523 2 66 2.44771 66 3H70C70 0.238577 67.7614 -2 65 -2V2ZM3 -2C0.238578 -2 -2 0.238574 -2 3H2C2 2.44772 2.44771 2 3 2V-2Z" fill="#F4D35E"/>
</svg>
